<svg width="60" height="60" viewBox="0 0 60 60" fill="none" xmlns="http://www.w3.org/2000/svg">
<path d="M37.5 10C42.8043 10 47.8914 12.1071 51.6422 15.8579C55.3929 19.6086 57.5 24.6957 57.5 30C57.5 35.3043 55.3929 40.3914 51.6422 44.1421C47.8914 47.8929 42.8043 50 37.5 50C32.1957 50 27.1086 47.8929 23.3579 44.1421C19.6071 40.3914 17.5 35.3043 17.5 30C17.5 24.6957 19.6071 19.6086 23.3579 15.8579C27.1086 12.1071 32.1957 10 37.5 10ZM37.5 15C33.5218 15 29.7065 16.5804 26.8934 19.3934C24.0804 22.2064 22.5 26.0218 22.5 30C22.5 33.9782 24.0804 37.7936 26.8934 40.6066C29.7065 43.4197 33.5218 45 37.5 45C41.4783 45 45.2936 43.4197 48.1066 40.6066C50.9197 37.7936 52.5 33.9782 52.5 30C52.5 26.0218 50.9197 22.2064 48.1066 19.3934C45.2936 16.5804 41.4783 15 37.5 15ZM35 20H38.75V29.45L44.575 35.275L41.925 37.925L35 31V20ZM5 45C4.33696 45 3.70107 44.7366 3.23223 44.2678C2.76339 43.7989 2.5 43.163 2.5 42.5C2.5 41.837 2.76339 41.2011 3.23223 40.7322C3.70107 40.2634 4.33696 40 5 40H14.575C15.35 41.775 16.35 43.45 17.5 45H5ZM7.5 32.5C6.83696 32.5 6.20108 32.2366 5.73223 31.7678C5.26339 31.2989 5 30.663 5 30C5 29.337 5.26339 28.7011 5.73223 28.2322C6.20108 27.7634 6.83696 27.5 7.5 27.5H12.625L12.5 30L12.625 32.5H7.5ZM10 20C9.33696 20 8.70108 19.7366 8.23224 19.2678C7.76339 18.7989 7.5 18.163 7.5 17.5C7.5 16.837 7.76339 16.2011 8.23224 15.7322C8.70108 15.2634 9.33696 15 10 15H17.5C16.35 16.55 15.35 18.225 14.575 20H10Z" fill="url(#paint0_linear_2291_24390)"/>
<defs>
<linearGradient id="paint0_linear_2291_24390" x1="7.60908" y1="41.3636" x2="53.3976" y2="41.334" gradientUnits="userSpaceOnUse">
<stop stop-color="#0AC4FF"/>
<stop offset="1" stop-color="#0066FF"/>
</linearGradient>
</defs>
</svg>
