<svg width="36" height="36" viewBox="0 0 36 36" fill="none" xmlns="http://www.w3.org/2000/svg">
<g id="Icon">
<path id="Vector" fill-rule="evenodd" clip-rule="evenodd" d="M11.5054 17.4342C8.7148 16.2936 6.74977 13.5524 6.74977 10.3502C6.74977 6.12357 10.1731 2.7002 14.3998 2.7002C18.6264 2.7002 22.0498 6.12357 22.0498 10.3502C22.0498 13.5524 20.0848 16.2936 17.2942 17.4342C19.98 18.0655 22.3344 19.5562 24.0516 21.6002H19.7212L19.5725 21.6043C18.1939 21.6804 17.0998 22.8084 17.0998 24.1886V29.7002H1.7998C1.7998 23.7374 5.94173 18.742 11.5054 17.4342ZM18.4415 12.1976C17.9754 14.0216 16.3098 15.3002 14.3998 15.3002C12.4897 15.3002 10.8241 14.0216 10.358 12.1976L12.3783 11.7002C12.6091 12.6147 13.4429 13.2568 14.3998 13.2568C15.3567 13.2568 16.1905 12.6147 16.4212 11.7002L18.4415 12.1976Z" fill="#1D2130"/>
<path id="Vector_2" fill-rule="evenodd" clip-rule="evenodd" d="M18.9004 24.9144C18.9004 24.0779 19.5784 23.3999 20.4148 23.3999H31.7859C32.6223 23.3999 33.3004 24.0779 33.3004 24.9144V31.1115C33.3004 31.9479 32.6223 32.6259 31.7859 32.6259H29.0039C28.6278 32.6304 27.7186 33.2444 27.017 33.7628C26.4843 34.1564 25.7413 34.1269 25.223 33.7145C24.5853 33.207 23.7421 32.6303 23.1988 32.6259H20.4148C19.5784 32.6259 18.9004 31.9479 18.9004 31.1115V24.9144ZM22.7081 28.9355C23.2434 28.9355 23.6773 28.5224 23.6773 28.0129C23.6773 27.5033 23.2434 27.0903 22.7081 27.0903C22.1728 27.0903 21.7389 27.5033 21.7389 28.0129C21.7389 28.5224 22.1728 28.9355 22.7081 28.9355ZM26.1004 28.9355C26.6357 28.9355 27.0696 28.5224 27.0696 28.0129C27.0696 27.5034 26.6357 27.0903 26.1004 27.0903C25.5651 27.0903 25.1312 27.5034 25.1312 28.0129C25.1312 28.5224 25.5651 28.9355 26.1004 28.9355ZM30.4619 28.0129C30.4619 28.5224 30.028 28.9355 29.4927 28.9355C28.9574 28.9355 28.5234 28.5224 28.5234 28.0129C28.5234 27.5034 28.9574 27.0903 29.4927 27.0903C30.028 27.0903 30.4619 27.5034 30.4619 28.0129Z" fill="url(#paint0_radial_935_504)"/>
</g>
<defs>
<radialGradient id="paint0_radial_935_504" cx="0" cy="0" r="1" gradientUnits="userSpaceOnUse" gradientTransform="translate(11.772 -3.20436) rotate(56.7643) scale(61.5658 216.908)">
<stop offset="0.175497" stop-color="#D798E1"/>
<stop offset="0.275566" stop-color="#9B9FFF"/>
<stop offset="0.49892" stop-color="#AED3FF"/>
<stop offset="0.565292" stop-color="#C9D4EF"/>
<stop offset="0.656871" stop-color="#CACFFA"/>
</radialGradient>
</defs>
</svg>
