<svg width="50" height="50" viewBox="0 0 50 50" fill="none" xmlns="http://www.w3.org/2000/svg">
<g clip-path="url(#clip0_2291_24392)">
<mask id="mask0_2291_24392" style="mask-type:alpha" maskUnits="userSpaceOnUse" x="6" y="2" width="38" height="48">
<path d="M41.6667 28.1251V6.25008C41.6667 5.69755 41.4472 5.16764 41.0565 4.77694C40.6658 4.38624 40.1359 4.16675 39.5833 4.16675H10.4167C9.86413 4.16675 9.33423 4.38624 8.94353 4.77694C8.55283 5.16764 8.33334 5.69755 8.33334 6.25008V43.7501C8.33334 44.3026 8.55283 44.8325 8.94353 45.2232C9.33423 45.6139 9.86413 45.8334 10.4167 45.8334H21.875M17.7083 12.5001H32.2917M17.7083 20.8334H32.2917M17.7083 29.1667H23.9583" stroke="white" stroke-width="4" stroke-linecap="round" stroke-linejoin="round"/>
<g clip-path="url(#clip1_2291_24392)">
<path d="M31.2164 49.0162H29.7407C29.658 49.0147 29.5769 48.9924 29.5051 48.9512C29.4333 48.9101 29.373 48.8515 29.3298 48.7809C29.2867 48.7102 29.262 48.6299 29.2582 48.5472C29.2544 48.4645 29.2714 48.3822 29.3079 48.3079L32.215 42.6215H28.9931C28.9044 42.6223 28.8172 42.599 28.7407 42.5543C28.6642 42.5095 28.6011 42.4449 28.5583 42.3673C28.5155 42.2897 28.4944 42.202 28.4973 42.1134C28.5003 42.0248 28.5271 41.9386 28.575 41.864L33.8284 33.5017C33.8715 33.4345 33.9303 33.3788 33.9997 33.3394C34.0691 33.2999 34.1471 33.278 34.2269 33.2755H40.8331C40.9313 33.2708 41.0286 33.2957 41.1126 33.3469C41.1965 33.3982 41.2632 33.4734 41.3039 33.5629C41.3447 33.6523 41.3577 33.752 41.3413 33.8489C41.3249 33.9459 41.2798 34.0357 41.2118 34.1068L36.7552 39.1782H39.4016C39.4953 39.1802 39.5865 39.2089 39.6644 39.2609C39.7424 39.313 39.8038 39.3862 39.8415 39.472C39.8793 39.5578 39.8917 39.6526 39.8774 39.7452C39.8631 39.8378 39.8226 39.9244 39.7607 39.9948L31.5804 48.8489C31.5349 48.9008 31.479 48.9425 31.4162 48.9713C31.3535 49.0001 31.2855 49.0154 31.2164 49.0162ZM30.5573 48.0324H31.0049L38.2703 40.162H35.678C35.5797 40.1667 35.4824 40.1418 35.3984 40.0905C35.3145 40.0393 35.2479 39.9641 35.2071 39.8746C35.1663 39.7851 35.1533 39.6855 35.1697 39.5885C35.1861 39.4916 35.2312 39.4018 35.2992 39.3307L39.7558 34.2592H34.4974L29.8637 41.6377H33.0266C33.1094 41.6392 33.1904 41.6615 33.2623 41.7027C33.3341 41.7438 33.3944 41.8024 33.4375 41.873C33.4807 41.9437 33.5053 42.024 33.5092 42.1067C33.513 42.1894 33.4959 42.2717 33.4595 42.3461L30.5573 48.0324Z" fill="black"/>
</g>
</mask>
<g mask="url(#mask0_2291_24392)">
<path d="M0 0H50V50H0V0Z" fill="url(#paint0_linear_2291_24392)"/>
</g>
</g>
<defs>
<linearGradient id="paint0_linear_2291_24392" x1="4.64462" y1="39.2045" x2="46.2705" y2="39.1849" gradientUnits="userSpaceOnUse">
<stop stop-color="#0AC4FF"/>
<stop offset="1" stop-color="#0066FF"/>
</linearGradient>
<clipPath id="clip0_2291_24392">
<rect width="50" height="50" fill="white"/>
</clipPath>
<clipPath id="clip1_2291_24392">
<rect width="17.7083" height="17.7083" fill="white" transform="translate(26.0417 32.2917)"/>
</clipPath>
</defs>
</svg>
