<svg width="50" height="50" viewBox="0 0 50 50" fill="none" xmlns="http://www.w3.org/2000/svg">
<path d="M42.2222 24.4445C39.7222 21.8057 36.3889 20.0001 32.9167 19.3057C31.3889 18.889 29.8611 18.6112 28.3333 18.4723C32.2222 13.889 31.5278 6.94454 26.9444 3.05565C22.3611 -0.833236 15.4167 -0.138792 11.5278 4.44454C7.63889 9.02787 8.33334 15.9723 12.9167 19.8612C13.75 20.5557 14.5833 21.1112 15.4167 21.389V24.4445L13.1944 22.3612C11.25 20.4168 8.05556 20.4168 5.97223 22.3612C4.02778 24.3057 3.88889 27.3612 5.83334 29.3057L12.2222 36.8057C12.5 38.7501 13.1944 40.5557 14.1667 42.2223C14.8611 43.4723 15.8333 44.7223 16.8056 45.6945V48.3334C16.8056 49.1668 17.3611 49.7223 18.1944 49.7223H37.0833C37.7778 49.7223 38.4722 49.0279 38.4722 48.3334V44.7223C41.1111 41.5279 42.5 37.5001 42.5 33.4723V25.4168C42.6389 24.8612 42.5 24.5834 42.2222 24.4445ZM11.6667 11.389C11.6667 6.80565 15.4167 3.19454 20 3.33343C24.5833 3.33343 28.1944 7.08343 28.0556 11.6668C28.0556 14.1668 26.9444 16.389 25 17.9168V10.9723C24.9291 9.76867 24.4004 8.63774 23.5224 7.81137C22.6444 6.985 21.4835 6.52579 20.2778 6.52787C17.7778 6.38899 15.5556 8.47232 15.5556 10.9723V18.1945C13.1944 16.8057 11.8056 14.1668 11.6667 11.389ZM39.8611 33.3334C40 36.9445 38.75 40.4168 36.3889 43.1945C36.1111 43.4723 35.8333 43.7501 35.8333 44.1668V47.0834H19.7222V45.139C19.7222 44.7223 19.4444 44.3057 19.1667 44.0279C18.1944 43.1945 17.3611 42.2223 16.6667 40.9723C15.8333 39.5834 15.2778 37.9168 15 36.2501C15 35.9723 14.8611 35.6945 14.7222 35.4168L8.05556 27.5001C7.63889 27.0834 7.36111 26.5279 7.36111 25.8334C7.36111 25.2779 7.63889 24.5834 8.05556 24.1668C9.02778 23.3334 10.4167 23.3334 11.3889 24.1668L15.4167 28.1945V32.3612L18.0556 30.9723V10.9723C18.1944 10.0001 19.0278 9.16676 20.1389 9.30565C21.1111 9.30565 22.0833 10.0001 22.0833 10.9723V26.9445L24.8611 27.5001V21.1112C25 20.9723 25.1389 20.9723 25.2778 20.8334C26.25 20.8334 27.2222 20.9723 28.1944 21.1112V28.1945L30.4167 28.6112V21.389L32.0833 21.8057C32.7778 21.9445 33.4722 22.2223 34.1667 22.5001V29.4445L36.3889 29.8612V23.4723C37.6389 24.0279 38.75 24.8612 39.7222 25.8334L39.8611 33.3334Z" fill="url(#paint0_linear_2291_24400)"/>
<defs>
<linearGradient id="paint0_linear_2291_24400" x1="7.98289" y1="39.1002" x2="39.7117" y2="39.0886" gradientUnits="userSpaceOnUse">
<stop stop-color="#0AC4FF"/>
<stop offset="1" stop-color="#0066FF"/>
</linearGradient>
</defs>
</svg>
